<svg xmlns="http://www.w3.org/2000/svg" xmlns:xlink="http://www.w3.org/1999/xlink" width="229" height="46" viewBox="0 0 229 46">
  <defs>
    <clipPath id="clip-path">
      <rect id="Rectangle_5" data-name="Rectangle 5" width="229" height="46" fill="none"/>
    </clipPath>
  </defs>
  <g id="Logo" transform="translate(-70 -33)">
    <g id="Vector_Smart_Object" data-name="Vector Smart Object">
      <g id="Vector_Smart_Object-2" data-name="Vector Smart Object" transform="translate(70 33)">
        <path id="Path_84" data-name="Path 84" d="M12.472,21.152l5.685,14.916H6.787ZM11.11,17.17,0,45.923H3.006L5.714,38.8H19.19L21.9,45.923H24.9L13.834,17.17Z" fill="#1c75bc"/>
        <g id="Group_10" data-name="Group 10">
          <g id="Group_9" data-name="Group 9" clip-path="url(#clip-path)">
            <path id="Path_85" data-name="Path 85" d="M44.071,30.974A7.2,7.2,0,0,0,47.23,24.9a7.717,7.717,0,0,0-7.686-7.731H28.074V45.923H40.459a8,8,0,0,0,7.966-8.01,7.711,7.711,0,0,0-4.353-6.938M30.907,29.9v-10h8.636a5,5,0,0,1,0,10Zm14.685,8.01a5.215,5.215,0,0,1-5.133,5.282H30.907V32.631h9.552a5.215,5.215,0,0,1,5.133,5.282" fill="#1c75bc"/>
            <path id="Path_86" data-name="Path 86" d="M71.189,17.17v23.3L55.258,17.17H52.875V45.923h2.833V22.63L71.6,45.923h2.423V17.17Z" fill="#1c75bc"/>
            <path id="Path_87" data-name="Path 87" d="M107.1,33.588C107.1,40.355,101.965,46,93.645,46A14.2,14.2,0,0,1,78.994,31.546,14.162,14.162,0,0,1,93.486,17.093a13.719,13.719,0,0,1,11.983,6.766L103.6,24.981a11.317,11.317,0,0,0-10.113-5.846A12.077,12.077,0,0,0,81.1,31.546,12.116,12.116,0,0,0,93.645,43.958c6.769,0,10.869-4.2,11.307-9.449H93.127v-2H107.1Z" fill="#39b54a"/>
            <path id="Path_88" data-name="Path 88" d="M127.643,43.557v2H112.4V17.534h2.11V43.557Z" fill="#39b54a"/>
            <path id="Path_89" data-name="Path 89" d="M183.537,37.913a7.6,7.6,0,0,1-7.6,7.647H163.909V17.534h11.108a7.352,7.352,0,0,1,7.325,7.367,6.84,6.84,0,0,1-3.583,6.125,7.347,7.347,0,0,1,4.777,6.887M166.02,19.536v10.73h9a5.367,5.367,0,0,0,0-10.73Zm15.407,18.377a5.574,5.574,0,0,0-5.494-5.645H166.02v11.29h9.913a5.573,5.573,0,0,0,5.494-5.645" fill="#39b54a"/>
            <path id="Path_90" data-name="Path 90" d="M204.755,38.433H190.781l-2.708,7.127h-2.229l10.829-28.026H198.9l10.789,28.026h-2.23Zm-.757-2-6.21-16.3-6.21,16.3Z" fill="#39b54a"/>
            <path id="Path_91" data-name="Path 91" d="M229,43.557v2H213.752V17.534h2.11V43.557Z" fill="#39b54a"/>
            <path id="Path_92" data-name="Path 92" d="M155.776,4.023A1.537,1.537,0,0,0,154.553,2.9C151.18,2.3,141.477.737,136.342.021a3.045,3.045,0,0,0-2.129.611c-2.626,2.039-5.271,4.142-7.828,6.175l-1.758,1.4q-2.537,2.015-5.065,4.042a1.755,1.755,0,0,0-.868,1.647,1.592,1.592,0,0,0,1.162,1.12l-.034,10.611a.97.97,0,0,0-.434.815l.006,1.2a.967.967,0,0,0,.964.964h1.509a.962.962,0,0,0,.7-.3.974.974,0,0,0,.264-.718l-.061-1.2a.969.969,0,0,0-.4-.74l.008-10.21,5.644.966c.387,1.382.774,2.77.971,3.5a.962.962,0,0,0,1.594.448,19.1,19.1,0,0,1,12.664-5.731,28.4,28.4,0,0,0-4.5,1.837c-6.3,3.253-9.623,8.37-9.623,14.8a.964.964,0,1,0,1.928,0c0-5.733,2.885-10.132,8.577-13.073a27.642,27.642,0,0,1,10-2.887.97.97,0,0,0,.223-1.912,20.986,20.986,0,0,0-19.416,4.5c-.653-2.347-1.654-5.893-1.667-5.939a.964.964,0,1,0-1.854.53c.006.021.226.8.525,1.866l-5.865-1a.962.962,0,0,0-.261-.009q2.25-1.806,4.511-3.6l1.758-1.4c2.553-2.03,5.193-4.129,7.811-6.161a1.165,1.165,0,0,1,.686-.225C140.834,2.6,149.524,4,153.42,4.669c-2.01,1.725-5.534,4.756-5.534,4.756L149.14,10.9s4.362-3.752,6.147-5.281a1.549,1.549,0,0,0,.49-1.593" fill="#1c75bc"/>
            <path id="Path_93" data-name="Path 93" d="M143.472,45.682A14.409,14.409,0,0,1,129.12,31.249a.964.964,0,1,1,1.928,0,12.424,12.424,0,1,0,22.464-7.363.973.973,0,0,1,.209-1.354.961.961,0,0,1,1.347.21,14.451,14.451,0,0,1-11.6,22.939" fill="#39b54a"/>
          </g>
        </g>
      </g>
      <path id="Color_Overlay" data-name="Color Overlay" d="M148.994,64.547a14.162,14.162,0,0,1,14.492-14.453,13.721,13.721,0,0,1,11.984,6.765L173.6,57.981a11.319,11.319,0,0,0-10.112-5.846,12.412,12.412,0,1,0,.159,24.823c6.768,0,10.868-4.2,11.307-9.448H163.127v-2H177.1v1.081C177.1,73.354,171.966,79,163.645,79A14.2,14.2,0,0,1,148.994,64.547Zm-7.4,14.376-15.89-23.292V78.923h-2.833V50.171h2.383l15.931,23.3v-23.3h2.832V78.923Zm-43.524,0V50.171h11.469a7.717,7.717,0,0,1,7.686,7.731,7.2,7.2,0,0,1-3.158,6.073,7.711,7.711,0,0,1,4.353,6.938,8,8,0,0,1-7.966,8.01Zm2.832-2.728h9.552a5.284,5.284,0,0,0,0-10.564h-9.552Zm0-13.292h8.636a5,5,0,0,0,0-10h-8.636ZM91.9,78.923,89.19,71.8H75.714l-2.708,7.126H70L81.11,50.171h2.724L94.9,78.923Zm-15.11-9.854h11.37L82.472,54.152Zm122.333-4.82c0-6.427,3.327-11.543,9.623-14.8a28.4,28.4,0,0,1,4.5-1.837,19.09,19.09,0,0,0-12.664,5.731.961.961,0,0,1-1.593-.448c-.2-.727-.584-2.115-.972-3.5l-5.643-.966-.008,10.21a.968.968,0,0,1,.4.74l.062,1.2a.977.977,0,0,1-.264.717.963.963,0,0,1-.7.3h-1.509a.967.967,0,0,1-.964-.964l-.005-1.2a.972.972,0,0,1,.433-.815l.034-10.61a1.594,1.594,0,0,1-1.162-1.12,1.756,1.756,0,0,1,.868-1.647q2.524-2.032,5.065-4.042l1.758-1.4c2.557-2.033,5.2-4.135,7.827-6.175a3.043,3.043,0,0,1,2.129-.611c5.134.715,14.837,2.277,18.211,2.878a1.558,1.558,0,0,1,.733,2.717c-1.784,1.529-6.146,5.28-6.146,5.28l-1.253-1.472s3.524-3.031,5.533-4.756c-3.9-.673-12.587-2.065-17.343-2.728a1.161,1.161,0,0,0-.686.226c-2.617,2.032-5.257,4.131-7.81,6.161l-1.759,1.4q-2.259,1.794-4.511,3.6a.942.942,0,0,1,.261.009l5.864,1-.526-1.866a.964.964,0,1,1,1.854-.53c.013.045,1.014,3.592,1.667,5.938a20.985,20.985,0,0,1,19.416-4.5.97.97,0,0,1-.223,1.912,27.628,27.628,0,0,0-10,2.887c-5.692,2.941-8.577,7.34-8.577,13.072a12.425,12.425,0,1,0,22.464-7.362.973.973,0,0,1,.21-1.355.96.96,0,0,1,1.346.211,14.384,14.384,0,1,1-25.947,8.506ZM283.752,78.56V50.534h2.111V76.558H299v2Zm-6.289,0-2.707-7.127H260.781l-2.707,7.127h-2.229l10.829-28.026H268.9L279.692,78.56Zm-15.885-9.129H274l-6.211-16.3ZM233.91,78.56V50.534h11.108a7.352,7.352,0,0,1,7.325,7.367,6.84,6.84,0,0,1-3.583,6.125,7.347,7.347,0,0,1,4.777,6.887,7.6,7.6,0,0,1-7.6,7.647Zm2.111-2h9.913a5.647,5.647,0,0,0,0-11.29h-9.913Zm0-13.292h9a5.367,5.367,0,0,0,0-10.73h-9ZM182.395,78.56V50.534h2.111V76.558h13.137v2Z" fill="#fff"/>
    </g>
  </g>
</svg>
